# xmcd
#
# Track frame offsets:
#	150
#	25440
#	33047
#	60173
#	86774
#	113837
#
# Disc length: 3059 seconds
#
# Revision: 0
# Processed by: cddbd v1.4PL0 Copyright (c) Steve Scherf et al.
# Submitted via: dBpowerAMP V4.0
#
DISCID=3e0bf106
DTITLE=Allen Ginsberg - Meditation Rock
DYEAR=1983
DGENRE=Alternative
TTITLE0=Do the Meditation Rock
TTITLE1=My Pretty Rose Tree
TTITLE2=Bird Brain
TTITLE3=Airplain Blues
TTITLE4=Prayer Blues
TTITLE5=Howl 
EXTD=Label: Bakhåll Sound Archive\nInfo: Allen Ginsberg´s performance at Kulturhuset, Stockholm, Sweden, January 23,1983, with Peter Orlovsky and  Steven Taylor.\n\n
EXTT0=
EXTT1=
EXTT2=
EXTT3=
EXTT4=
EXTT5=
PLAYORDER=
